<svg id="Layer_1" data-name="Layer 1" xmlns="http://www.w3.org/2000/svg" viewBox="0 0 1848 356.54"><title>Backstage_Wordmark_Black_RGB</title><path d="M69.28,206.45v95.48H90.17c32.67,0,41.78-17.1,41.78-47.47,0-29.79-9.11-48-41.78-48Zm0-52.43H88c32.13,0,39.64-17.67,39.64-44.16S120.16,64.05,88,64.05H69.28ZM96.6,357.13H5V9.41H95c70.17,0,94.27,37.54,94.27,92.17,0,42.5-23,70.65-56.24,76.72,40.18,7.73,62.68,36.43,62.68,82.79,0,60.71-29.47,96-99.1,96" transform="translate(-5 -5)"/><path d="M291,229.63h48.21L316.74,104.9h-2.15ZM356.91,9.41l71.78,347.72H362.27l-13.93-75.07h-67l-13.92,75.07H206.4L278.17,9.41Z" transform="translate(-5 -5)"/><path d="M506.14,240.12c0,40.29,5.35,65.68,30.53,65.68,25.71,0,30-25.39,30-65.68V208.66h64.82V223c0,83.34-23,138.53-93.21,138.53-72.85,0-100.7-54.64-100.7-153.44V158.43C437.58,59.64,465.43,5,538.28,5c70.17,0,93.21,55.19,93.21,138.53v14.35H566.67V126.42c0-40.29-4.29-65.68-30-65.68-25.18,0-30.53,25.39-30.53,65.68Z" transform="translate(-5 -5)"/><polygon points="788.08 352.13 745.76 218.57 725.95 269.89 725.95 352.13 659.53 352.13 659.53 4.42 725.95 4.42 725.95 169.99 788.08 4.42 856.65 4.42 795.58 156.19 857.72 352.13 788.08 352.13"/><path d="M927,237.36v21c0,29.8,11.78,48.57,34.28,48.57,20.35,0,30.53-13.8,30.53-37,0-24.83-12.85-33.66-33.21-47.46l-27.85-18.22c-32.68-21-61.6-44.7-61.6-102.66S904,5,958.05,5c58.39,0,89.45,36.42,89.45,103.21v19.87H989.11V107.66c0-31.46-9.64-48-31.06-48-18.75,0-27.86,14.9-27.86,37.53,0,23.18,10.18,34.77,27.32,45.81L988,162.85c39.1,23.73,65.35,48,65.35,101.55,0,62.37-36.42,97.14-92.13,97.14-56.78,0-93.2-34.77-93.2-104.31V237.36Z" transform="translate(-5 -5)"/><polygon points="1118.94 352.13 1118.94 60.71 1055.73 60.71 1055.73 4.42 1250.17 4.42 1250.17 60.71 1185.36 60.71 1185.36 352.13 1118.94 352.13"/><path d="M1318.91,229.63h48.2l-22.5-124.73h-2.14ZM1384.79,9.41l71.78,347.72h-66.43l-13.92-75.07h-67l-13.93,75.07h-61.06L1306.05,9.41Z" transform="translate(-5 -5)"/><path d="M1614.65,357.13,1609.29,324c-7.5,25.39-31.07,37.53-56.78,37.53-63.21,0-89.45-54.64-89.45-153.44V158.43C1463.06,59.64,1492,5,1563.22,5c70.71,0,95.35,49.67,95.35,133v7.73h-64.81V126.42c0-40.29-4.83-65.68-30.54-65.68s-31.6,25.39-31.6,65.68v112c0,40.85,7.5,66.23,32.67,66.23s32.15-25.38,32.15-66.23v-6.62h-27.86V180h90.52V357.13Z" transform="translate(-5 -5)"/><polygon points="1689.99 4.42 1689.99 352.13 1848 352.13 1848 295.83 1754.8 295.83 1754.8 202.55 1823.9 202.55 1823.9 146.26 1754.8 146.26 1754.8 60.71 1846.93 60.71 1846.93 4.42 1689.99 4.42"/></svg>